<?xml version="1.0" encoding="UTF-8" standalone="no"?>
<!DOCTYPE svg PUBLIC "-//W3C//DTD SVG 1.1//EN" "http://www.w3.org/Graphics/SVG/1.1/DTD/svg11.dtd">
<svg xmlns="http://www.w3.org/2000/svg" version="1.1" viewBox="0.00 0.00 500.00 500.00">
<path fill="#187e8c" d="
  M 304.05 281.55
  A 0.29 0.29 0.0 0 1 303.59 281.32
  Q 303.43 107.37 303.49 98.76
  Q 303.53 93.34 307.29 91.40
  Q 309.31 90.35 315.86 90.35
  Q 355.68 90.38 358.81 90.40
  Q 366.46 90.45 368.33 97.52
  A 3.96 3.75 39.1 0 1 368.46 98.51
  L 368.46 229.81
  A 1.07 1.06 -19.9 0 1 368.07 230.63
  Q 335.27 257.65 304.05 281.55
  Z"
/>
<path fill="#187e8c" d="
  M 221.88 334.68
  A 0.25 0.25 0.0 0 1 221.52 334.45
  Q 221.36 239.89 221.22 167.07
  C 221.20 159.55 223.25 156.61 230.62 156.62
  Q 261.84 156.67 275.63 156.58
  Q 280.33 156.55 282.62 158.05
  Q 286.30 160.46 286.32 166.01
  Q 286.47 223.91 286.37 295.50
  A 0.74 0.70 -18.2 0 1 286.05 296.09
  C 265.00 310.32 243.83 323.87 221.88 334.68
  Z"
/>
<path fill="#187e8c" d="
  M 118.44 275.97
  C 116.41 279.84 113.87 282.85 111.65 286.71
  C 105.60 297.25 101.21 305.57 97.14 316.64
  Q 94.47 323.90 94.12 328.86
  Q 93.79 333.61 94.16 341.50
  C 94.56 349.91 98.65 358.12 103.38 364.63
  C 108.87 372.17 116.23 375.91 125.04 378.12
  Q 128.18 378.90 133.02 378.86
  Q 141.54 378.79 145.19 378.90
  Q 150.44 379.06 157.27 378.04
  Q 182.30 374.30 203.26 364.98
  Q 246.27 345.85 287.42 317.18
  Q 343.83 277.86 395.35 230.86
  Q 397.79 228.64 396.10 225.98
  Q 391.36 218.53 387.61 211.88
  C 384.92 207.13 384.80 200.28 389.85 197.32
  Q 391.95 196.09 399.38 196.10
  Q 421.41 196.14 453.85 196.07
  Q 459.41 196.05 461.07 197.07
  C 465.30 199.66 465.27 205.29 463.69 209.70
  Q 453.98 236.87 443.84 266.57
  C 442.23 271.28 439.64 275.83 433.76 276.11
  C 427.18 276.42 424.52 271.83 421.41 266.85
  Q 420.22 264.96 418.04 265.77
  Q 416.24 266.43 410.95 270.45
  Q 407.03 273.42 376.97 296.97
  C 339.70 326.16 302.19 352.93 261.88 375.53
  C 240.40 387.58 217.87 397.63 194.26 405.77
  Q 176.11 412.03 158.00 412.99
  Q 144.30 413.72 127.51 413.13
  Q 115.70 412.72 103.58 409.34
  C 88.38 405.09 76.92 395.51 71.31 380.63
  Q 69.21 375.08 69.18 366.41
  C 69.13 348.96 74.14 334.15 82.91 319.97
  Q 87.07 313.26 97.97 300.22
  Q 107.33 289.03 116.36 277.61
  Q 117.79 275.79 118.21 275.68
  A 0.20 0.20 0.0 0 1 118.44 275.97
  Z"
/>
<path fill="#187e8c" d="
  M 203.42 343.87
  Q 185.15 351.75 165.26 357.75
  Q 152.16 361.69 138.82 362.31
  A 0.86 0.86 0.0 0 1 137.92 361.45
  Q 137.90 285.15 137.86 235.39
  Q 137.86 230.21 139.01 228.36
  Q 140.86 225.39 144.19 224.21
  A 2.72 2.59 33.3 0 1 145.13 224.04
  L 196.86 224.04
  A 2.75 2.69 53.7 0 1 197.72 224.18
  Q 203.89 226.16 203.88 232.99
  Q 203.81 287.81 203.89 343.16
  A 0.77 0.77 0.0 0 1 203.42 343.87
  Z"
/>
<path fill="#187e8c" d="
  M 223.46 416.18
  A 0.31 0.31 0.0 0 1 223.36 415.59
  Q 258.69 400.41 292.27 380.56
  Q 303.87 373.70 326.02 358.55
  C 347.17 344.07 358.33 337.01 367.98 328.94
  A 0.46 0.46 0.0 0 1 368.73 329.35
  Q 366.08 350.03 355.94 367.83
  C 349.47 379.19 340.73 386.77 330.46 393.43
  Q 310.88 406.14 302.12 410.64
  C 289.83 416.94 275.43 418.67 261.48 418.08
  Q 238.84 417.11 223.46 416.18
  Z"
/>
</svg>
